#!OML:ASF E:\Mandelcareful walks\Project 1\Capture day 1\Session 1\Subject1.ASF
:FULLY-SPECIFIED
:DEGREES
428
root -9.61233 14.6206 0.182857 -304.315 79.7184 42.866
lowerback 21.1292 -2.39725 -0.358629
upperback 6.95098 -2.74436 -0.170935
thorax -4.23067 -1.15609 0.6692
lowerneck -23.2137 -7.13941 -11.0029
upperneck 15.283 -8.0251 8.99648
head 9.4429 -3.42055 3.70278
rclavicle -5.56597e-015 7.15625e-015
rhumerus -36.8494 9.3318 -80.5224
rradius 68.7267
rwrist -21.4647
rhand -27.8262 -12.6813
rfingers 7.12502
rthumb -1.21801 -42.6576
lclavicle -5.56597e-015 7.15625e-015
lhumerus -37.246 -32.2636 93.8018
lradius 80.4428
lwrist 9.89084
lhand -24.5702 -11.7111
lfingers 7.12502
lthumb 1.92668 18.2599
rfemur -57.7224 -19.1932 12.3965
rtibia 67.3713
rfoot -20.4169 -11.9596
rtoes -1.41196
lfemur -48.886 23.2417 -17.0442
ltibia 81.0969
lfoot -13.8159 9.54208
ltoes -24.587
429
root -9.50819 14.6475 0.203589 -305.053 79.5904 42.1891
lowerback 21.5707 -2.61019 -0.612804
upperback 6.77425 -3.05259 0.234516
thorax -4.60532 -1.30836 1.34308
lowerneck -20.9951 -9.67366 -13.2388
upperneck 13.4429 -11.6359 12.2812
head 9.19032 -4.96474 4.634
rclavicle 4.37326e-015 -8.74653e-015
rhumerus -36.5027 10.1047 -79.7827
rradius 68.7761
rwrist -21.3696
rhand -27.4968 -11.1242
rfingers 7.12502
rthumb -0.899892 -41.102
lclavicle 4.37326e-015 -8.74653e-015
lhumerus -37.8541 -31.7822 95.1214
lradius 80.1097
lwrist 9.03505
lhand -24.2405 -11.9408
lfingers 7.12502
lthumb 2.24507 18.0271
rfemur -57.0619 -18.8014 12.1742
rtibia 67.2251
rfoot -20.4608 -12.2588
rtoes -2.17244
lfemur -49.7619 22.1995 -16.6679
ltibia 78.442
lfoot -14.3399 9.36431
ltoes -25.4786
430
root -9.4016 14.6751 0.214564 -306.294 79.4494 41.0165
lowerback 22.1126 -2.82965 -1.05148
upperback 6.52853 -3.40088 0.787709
thorax -5.07521 -1.47674 2.30465
lowerneck -18.4364 -12.1223 -15.4025
upperneck 11.534 -15.2058 15.4221
head 9.06271 -6.57848 5.47922
rclavicle 1.51076e-014 1.59028e-015
rhumerus -36.0012 11.2405 -78.965
rradius 68.7266
rwrist -21.3137
rhand -27.7486 -11.1075
rfingers 7.12502
rthumb -1.14308 -41.0841
lclavicle 1.51076e-014 1.59028e-015
lhumerus -38.5903 -30.966 96.6655
lradius 79.7445
lwrist 8.05787
lhand -23.9318 -12.4518
lfingers 7.12502
lthumb 2.54324 17.5128
rfemur -56.3791 -18.4044 12.0009
rtibia 66.9895
rfoot -20.5311 -12.5564
rtoes -3.70622
lfemur -50.1232 21.0812 -16.0391
ltibia 75.1393
lfoot -14.7992 9.10141
ltoes -26.4217
431
root -9.29403 14.7079 0.212941 -308.422 79.0944 38.8324
lowerback 22.2091 -2.98988 -1.4688
upperback 6.47312 -3.66963 1.23298
thorax -5.1123 -1.6097 3.09559
lowerneck -15.3285 -14.3493 -17.2632
upperneck 9.17846 -18.6454 18.6841
head 8.87326 -8.21693 6.31292
rclavicle 5.725e-014 -2.3059e-014
rhumerus -34.8627 12.2053 -78.3327
rradius 68.3661
rwrist -21.2204
rhand -28.4399 -12.8818
rfingers 7.12502
rthumb -1.81076 -42.8539
lclavicle 5.725e-014 -2.3059e-014
lhumerus -39.0199 -30.3303 97.8957
lradius 79.3913
lwrist 7.25376
lhand -23.7171 -12.8903
lfingers 7.12502
lthumb 2.75054 17.0717
rfemur -55.8461 -17.8358 11.8141
rtibia 66.6628
rfoot -20.6647 -12.6234
rtoes -4.50268
lfemur -50.2111 20.0414 -15.3123
ltibia 71.3543
lfoot -15.2234 8.48469
ltoes -28.2023
432
root -9.17077 14.7594 0.202874 -307.021 79.2803 40.501
lowerback 22.4721 -3.59162 -1.57138
upperback 6.49391 -4.42406 1.67403
thorax -5.12979 -1.97284 3.83569
lowerneck -12.9195 -16.3788 -18.9545
upperneck 7.43188 -21.8395 21.7283
head 9.11415 -9.75939 7.00126
rclavicle 6.16232e-014 3.97569e-015
rhumerus -33.5163 13.1981 -77.7849
rradius 67.9446
rwrist -21.1045
rhand -28.598 -13.6844
rfingers 7.12502
rthumb -1.96346 -43.6551
lclavicle 6.16232e-014 3.97569e-015
lhumerus -39.6062 -29.6003 99.0607
lradius 79.1212
lwrist 6.27518
lhand -23.7773 -13.2112
lfingers 7.12502
lthumb 2.69242 16.7515
rfemur -54.5458 -18.1509 11.3709
rtibia 66.2285
rfoot -21.1061 -12.564
rtoes -4.50647
lfemur -49.7325 17.9884 -14.4028
ltibia 67.131
lfoot -15.3779 7.27243
ltoes -30.0782
433
root -9.0681 14.7819 0.171985 -310.946 78.3392 36.2184
lowerback 22.3507 -3.61032 -2.03098
upperback 6.38374 -4.53791 2.02798
thorax -5.1094 -2.03594 4.50408
lowerneck -10.598 -18.1309 -20.556
upperneck 5.89826 -24.7094 24.5824
head 9.5041 -11.1935 7.60596
rclavicle -9.93923e-015 -4.6118e-014
rhumerus -31.9996 13.9488 -77.3707
rradius 67.5496
rwrist -20.9046
rhand -28.4848 -14.0895
rfingers 7.12502
rthumb -1.85417 -44.0611
lclavicle -9.93923e-015 -4.6118e-014
lhumerus -40.2585 -28.9355 100.145
lradius 78.7922
lwrist 5.04182
lhand -23.9459 -13.9121
lfingers 7.12502
lthumb 2.52958 16.0527
rfemur -54.5911 -17.2824 11.2013
rtibia 65.7855
rfoot -20.8981 -12.4573
rtoes -4.9889
lfemur -49.5995 17.2778 -13.5527
ltibia 62.9963
lfoot -15.1939 6.10772
ltoes -32.409
434
root -8.95031 14.8202 0.126555 -311.362 77.9199 35.8872
lowerback 22.3096 -4.14423 -2.28729
upperback 6.34906 -5.25919 2.36488
thorax -5.0016 -2.39244 5.19077
lowerneck -8.98212 -19.2831 -21.756
upperneck 5.05703 -26.7219 26.7211
head 9.99523 -12.2065 8.03735
rclavicle -3.65764e-014 2.38542e-015
rhumerus -30.3577 14.8966 -77.1903
rradius 67.1957
rwrist -20.7198
rhand -28.473 -15.26
rfingers 7.12502
rthumb -1.84277 -45.2318
lclavicle -3.65764e-014 2.38542e-015
lhumerus -41.058 -27.9665 101.15
lradius 78.4498
lwrist 3.55462
lhand -23.9544 -15.0071
lfingers 7.12502
lthumb 2.52136 14.9577
rfemur -53.825 -17.4535 10.72
rtibia 65.2969
rfoot -20.8656 -12.1656
rtoes -6.17592
lfemur -48.9488 15.5993 -12.6662
ltibia 59
lfoot -14.9215 5.22157
ltoes -34.0873
435
root -8.8274 14.8525 0.0598624 -313.315 77.2099 33.995
lowerback 22.287 -4.59632 -2.54509
upperback 6.25612 -5.87753 2.75657
thorax -4.95451 -2.69984 5.9151
lowerneck -7.24338 -19.7787 -22.4982
upperneck 4.24763 -27.7386 28.0353
head 10.057 -12.8209 8.40824
rclavicle 3.81667e-014 -1.82882e-014
rhumerus -28.9004 16.306 -76.9948
rradius 67.1578
rwrist -20.7325
rhand -28.6281 -15.8087
rfingers 7.12502
rthumb -1.99252 -45.7791
lclavicle 3.81667e-014 -1.82882e-014
lhumerus -41.9698 -26.904 102.227
lradius 78.0801
lwrist 1.52798
lhand -24.2599 -16.1038
lfingers 7.12502
lthumb 2.22634 13.8643
rfemur -53.1952 -17.3712 10.252
rtibia 64.843
rfoot -20.9106 -11.5912
rtoes -6.7933
lfemur -48.1898 14.2949 -11.692
ltibia 55.5773
lfoot -14.5661 4.89991
ltoes -33.1674
436
root -8.71333 14.8564 -0.0199654 -318.279 75.3412 28.5758
lowerback 21.4192 -4.10002 -1.96453
upperback 6.71969 -5.14704 2.23016
thorax -4.20191 -2.37026 4.74019
lowerneck -8.27061 -20.9066 -21.0828
upperneck 4.11214 -29.5194 29.0521
head 10.6487 -13.4762 7.92031
rclavicle -4.57205e-014 2.78299e-014
rhumerus -27.2277 14.6898 -77.551
rradius 67.3054
rwrist -20.4705
rhand -28.1089 -15.1914
rfingers 7.12502
rthumb -1.49106 -45.166
lclavicle -4.57205e-014 2.78299e-014
lhumerus -42.2287 -29.4356 102.262
lradius 77.5788
lwrist -0.539261
lhand -25.8527 -16.6059
lfingers 7.12502
lthumb 0.687993 13.3727
rfemur -53.6971 -16.0911 9.94799
rtibia 64.4602
rfoot -20.6461 -10.8864
rtoes -6.49162
lfemur -47.6233 14.4129 -10.7614
ltibia 52.8923
lfoot -13.9682 5.0178
ltoes -33.4406
437
root -8.58558 14.8671 -0.115352 -320.167 73.9845 26.5582
lowerback 20.9846 -4.27914 -2.23461
upperback 6.67357 -5.43678 2.42935
thorax -3.95501 -2.53013 5.13793
lowerneck -7.64143 -20.8033 -21.2272
upperneck 3.33504 -29.4398 29.9263
head 10.48 -13.5125 8.30174
rclavicle 1.94809e-014 -5.48646e-014
rhumerus -26.0597 15.4478 -77.6156
rradius 67.6569
rwrist -20.3648
rhand -26.4302 -14.0509
rfingers 7.12502
rthumb 0.130281 -44.0306
lclavicle 1.94809e-014 -5.48646e-014
lhumerus -43.1064 -29.3847 103.068
lradius 77.6537
lwrist -0.765403
lhand -24.6027 -16.2544
lfingers 7.12502
lthumb 1.89527 13.7169
rfemur -53.6325 -15.7808 9.31825
rtibia 64.1115
rfoot -20.4741 -10.029
rtoes -6.43258
lfemur -46.9625 13.8524 -10.1053
ltibia 51.0784
lfoot -13.2499 5.04749
ltoes -34.4304
